<?xml version="1.0" standalone="no"?>
<!DOCTYPE svg PUBLIC "-//W3C//DTD SVG 20010904//EN"
 "http://www.w3.org/TR/2001/REC-SVG-20010904/DTD/svg10.dtd">
<svg version="1.0" xmlns="http://www.w3.org/2000/svg"
 width="250.000000pt" height="250.000000pt" viewBox="0 0 250.000000 250.000000"
 preserveAspectRatio="xMidYMid meet">

<g transform="translate(0.000000,250.000000) scale(0.100000,-0.100000)"
fill="#000000" stroke="none">
<path d="M1185 2394 c-74 -39 -133 -94 -162 -151 l-28 -58 0 -513 0 -514 29
-23 28 -23 -98 -57 c-55 -32 -103 -60 -107 -63 -5 -2 5 15 22 38 60 83 61 96
61 622 0 478 -2 509 -34 530 -23 16 -55 7 -114 -33 -72 -48 -116 -110 -132
-182 -8 -36 -10 -206 -8 -535 l3 -484 27 -23 27 -24 -107 -62 c-59 -34 -111
-64 -116 -67 -5 -3 2 10 17 29 14 19 37 57 49 85 22 47 23 62 26 334 4 307 -1
353 -42 371 -25 12 -63 -3 -122 -47 -17 -13 -34 -20 -38 -17 -3 4 -6 57 -6
119 l0 112 37 29 c21 16 64 46 96 68 l57 38 0 64 c0 36 -4 63 -9 61 -5 -1 -66
-41 -135 -88 l-125 -85 -1 -257 0 -258 43 28 c23 15 63 42 89 60 26 17 51 32
57 32 8 0 11 -83 11 -263 0 -261 0 -264 -22 -284 -31 -28 -78 -57 -83 -51 -2
2 -5 84 -5 181 -1 109 -5 177 -11 177 -6 0 -26 -12 -45 -26 l-34 -26 1 -192
c1 -105 4 -202 8 -216 4 -14 17 -29 29 -35 29 -13 28 -23 -3 -37 -37 -16 -31
-30 26 -60 l51 -27 131 78 c130 76 350 207 556 330 57 34 105 60 107 58 2 -1
4 -58 5 -126 1 -93 -2 -126 -12 -136 -8 -7 -115 -72 -239 -145 -300 -177 -310
-183 -307 -195 2 -5 24 -21 50 -35 46 -25 46 -25 79 -6 18 11 177 105 353 209
176 105 381 226 455 270 74 44 167 100 206 124 59 36 76 42 96 34 32 -12 56 2
74 45 22 52 20 809 -2 885 -21 72 -52 110 -123 153 -78 48 -111 54 -136 26
-19 -21 -20 -40 -23 -439 -4 -453 0 -493 48 -559 l29 -40 -196 -116 c-107 -65
-197 -116 -198 -114 -9 9 -9 262 0 265 6 2 47 26 91 53 l81 50 7 63 c7 62 35
275 81 610 14 98 25 209 25 247 0 62 -2 71 -22 81 -13 6 -73 43 -134 80 -61
38 -114 69 -117 69 -4 0 -7 -24 -7 -53 0 -62 2 -65 108 -127 40 -23 75 -46 78
-51 3 -5 -6 -78 -20 -162 -30 -179 -92 -571 -102 -640 -6 -45 -11 -51 -58 -82
-28 -18 -78 -47 -111 -65 -54 -30 -58 -31 -38 -9 11 13 32 44 45 69 l23 45 3
513 3 512 -25 25 c-29 29 -32 30 -71 9z m9 -150 c11 -29 7 -871 -5 -896 -12
-26 -96 -84 -107 -73 -9 9 -15 793 -7 863 6 49 10 56 53 87 54 40 58 41 66 19z
m-354 -650 c0 -259 -4 -453 -9 -463 -6 -10 -28 -30 -51 -46 -34 -24 -43 -26
-51 -14 -12 19 -12 860 0 892 10 26 90 88 104 80 4 -2 7 -204 7 -449z m970
431 c21 -14 44 -33 50 -44 16 -31 14 -797 -3 -804 -7 -3 -34 10 -60 29 l-47
34 0 398 c0 219 3 402 7 405 9 10 9 10 53 -18z"/>
<path d="M2048 1959 c-33 -19 -38 -77 -38 -480 0 -333 3 -404 16 -450 9 -30
22 -61 28 -69 30 -35 31 -46 4 -28 -26 17 -29 17 -135 -31 -59 -27 -162 -75
-228 -106 -66 -31 -163 -76 -215 -100 -52 -24 -149 -69 -215 -100 -66 -31
-163 -77 -215 -100 -224 -102 -281 -132 -268 -142 7 -5 31 -20 54 -32 l40 -23
125 57 125 56 119 -72 c66 -39 124 -75 128 -79 7 -6 -72 -73 -167 -143 -12 -8
-12 -7 60 -51 l40 -25 150 115 c82 63 180 138 218 167 37 28 94 72 126 97 32
25 152 117 268 205 116 88 211 165 211 171 1 6 -10 16 -25 22 l-25 12 28 24
28 24 3 419 c4 476 2 498 -59 566 -60 69 -148 116 -181 96z m85 -130 c12 -6
34 -23 50 -37 l27 -26 0 -392 c0 -256 -4 -395 -10 -399 -13 -8 -75 30 -95 58
-13 18 -15 81 -15 408 0 212 3 389 7 392 8 9 11 9 36 -4z m-73 -1019 c22 -11
40 -24 40 -28 -1 -4 -96 -74 -212 -157 -116 -82 -258 -185 -316 -227 l-105
-78 -46 26 c-93 54 -192 117 -188 120 2 2 77 38 168 80 301 140 433 201 519
243 47 22 89 40 93 41 4 0 26 -9 47 -20z"/>
</g>
</svg>
