<svg width="29" height="28" viewBox="0 0 29 28" fill="none" xmlns="http://www.w3.org/2000/svg">
<g clip-path="url(#clip0_12_68)">
<path fill-rule="evenodd" clip-rule="evenodd" d="M28.7949 26.3701C28.7949 27.2148 28.1129 27.9079 27.2576 27.9079H20.1448V17.1002H23.7714L24.3127 12.8875H20.1448V10.2018C20.1448 8.97802 20.4804 8.15497 22.2341 8.15497H24.4642V4.37543C24.0745 4.32129 22.7538 4.21299 21.2166 4.21299C18.0014 4.21299 15.8038 6.17314 15.8038 9.77941V12.8875H12.1664V17.1002H15.8038V27.9079H2.43469C1.5903 27.9079 0.897461 27.2256 0.897461 26.3701V1.5378C0.897461 0.693094 1.5903 0 2.43469 0H27.2576C28.1021 0 28.7949 0.682266 28.7949 1.5378V26.3701ZM15.8038 27.9079H20.1448V27.9081H15.8038V27.9079Z" fill="white"/>
</g>
<defs>
<clipPath id="clip0_12_68">
<rect width="27.8974" height="27.8974" fill="white" transform="translate(0.897461)"/>
</clipPath>
</defs>
</svg>
